HIERARCHY
ROOT Hips
{
   OFFSET 0.00000 0.00000 0.00000
   CHANNELS 6 Xposition Yposition Zposition Zrotation Xrotation Yrotation
   JOINT RightUpLeg
   {
      OFFSET -10.734961 -10.400485 0.121982
      CHANNELS 3 Zrotation Xrotation Yrotation
      JOINT RightLeg
      {
         OFFSET 0.000000 -53.307237 1.647240
         CHANNELS 3 Zrotation Xrotation Yrotation
         JOINT RightFoot
         {
            OFFSET 0.304259 -50.510883 -1.752708
            CHANNELS 3 Zrotation Xrotation Yrotation
            JOINT RightToes
            {
               OFFSET 0.048000 -5.298108 10.198920
               CHANNELS 3 Zrotation Xrotation Yrotation
               End Site
               {
                  OFFSET -0.096000 -0.164938 11.735748
               }
            }
         }
      }
   }
   JOINT Spine
   {
      OFFSET 0.000000 14.268601 0.000000
      CHANNELS 3 Zrotation Xrotation Yrotation
      JOINT Spine1
      {
         OFFSET 0.000000 30.788881 0.153196
         CHANNELS 3 Zrotation Xrotation Yrotation
         JOINT HEad
         {
            OFFSET 0.000000 10.480993 0.013609
            CHANNELS 3 Zrotation Xrotation Yrotation
            End Site
            {
               OFFSET -0.348000 15.329041 3.016740
            }
         }
         JOINT LeftShoulder1
         {
            OFFSET 10.788001 -0.434702 -0.264000
            CHANNELS 3 Zrotation Xrotation Yrotation
            JOINT LeftArm
            {
               OFFSET 12.339240 -0.004056 0.386548
               CHANNELS 3 Zrotation Xrotation Yrotation
               JOINT LeftForeArm
               {
                  OFFSET 39.320280 0.118973 -1.709208
                  CHANNELS 3 Zrotation Xrotation Yrotation
                  JOINT LeftHand
                  {
                     OFFSET 33.077163 0.102434 1.226592
                     CHANNELS 3 Zrotation Xrotation Yrotation
                     End Site
                     {
                        OFFSET 20.093162 -0.720000 1.803492
                     }
                  }
               }
            }
         }
         JOINT RightShoulder
         {
            OFFSET -10.788001 -0.434702 -0.264000
            CHANNELS 3 Zrotation Xrotation Yrotation
            JOINT RightArm
            {
               OFFSET -12.339240 -0.004056 0.386548
               CHANNELS 3 Zrotation Xrotation Yrotation
               JOINT RightForeArm
               {
                  OFFSET -39.476518 0.118973 -1.709208
                  CHANNELS 3 Zrotation Xrotation Yrotation
                  JOINT RightHand
                  {
                     OFFSET -32.990522 0.102434 1.226592
                     CHANNELS 3 Zrotation Xrotation Yrotation
                     End Site
                     {
                        OFFSET -19.957442 -0.720000 1.803492
                     }
                  }
               }
            }
         }
      }
   }
   JOINT LeftUpLeg
   {
      OFFSET 10.734961 -10.400485 0.121982
      CHANNELS 3 Zrotation Xrotation Yrotation
      JOINT LeftLeg
      {
         OFFSET 0.000000 -53.307237 1.647240
         CHANNELS 3 Zrotation Xrotation Yrotation
         JOINT LeftFoot
         {
            OFFSET -0.304259 -50.510883 -1.752708
            CHANNELS 3 Zrotation Xrotation Yrotation
            JOINT LeftToes
            {
               OFFSET -0.048000 -5.298108 10.198920
               CHANNELS 3 Zrotation Xrotation Yrotation
               End Site
               {
                  OFFSET 0.096000 -0.056938 11.735748
               }
            }
         }
      }
   }
}
MOTION
Frames: 16
Frame Time: 0.016667
-967.689881 106.516903 364.007220 61.510744 -34.911054 70.320315 -25.660240 59.549790 7.357793 19.009969 24.035282 22.490037 -40.681532 10.739098 11.394309 22.672494 -14.149574 -63.030577 5.443240 88.651887 135.187994 18.489635 43.179684 -162.069748 15.378902 70.355784 15.581359 20.155096 144.830323 25.188138 -84.337578 79.585610 -232.220203 -54.187606 107.605013 -7.720038 -42.774418 -54.053052 -85.081815 -2.832646 29.008483 100.429886 232.671350 69.330703 172.503066 51.640991 119.794906 99.555751 11.887632 -23.874578 17.122921 5.466230 37.794500 4.082512 5.316745 28.807586 74.425751 -56.038075 45.567300 13.770700 16.964931 -16.812610 -46.819775
-968.178849 106.503132 363.583826 61.467331 -35.956926 70.066594 -26.237104 59.464009 9.434916 20.629027 22.780494 19.683015 -41.251969 11.282509 11.885212 22.753559 -14.303655 -63.244861 3.412214 91.811697 133.988804 15.172738 43.834669 -162.093011 22.648532 65.832232 11.188706 19.340864 145.560757 23.971520 -86.298088 78.611830 -232.706676 -53.436323 107.510333 -7.601289 -41.237882 -54.502434 -86.519960 -5.571165 25.657852 104.195191 232.635888 66.105077 171.370102 45.168601 125.309000 95.409717 14.194909 -22.627886 11.773057 7.451004 37.309553 0.659777 0.343448 29.579678 83.826434 -53.821956 44.193397 12.908252 16.179219 -18.644965 -46.971884
-968.546510 106.347292 363.155054 63.136213 -37.289729 71.592841 -26.242944 60.142930 11.700670 21.821720 22.719588 16.863107 -41.131420 12.245295 12.607120 22.952784 -14.346027 -63.436611 2.543842 91.409576 132.879623 11.842601 42.965127 -161.474797 29.531255 61.801628 7.273741 17.912982 147.556880 21.727038 -89.022951 76.732442 -231.067048 -50.989681 107.703218 -6.287058 -41.492825 -54.018248 -84.982593 -7.186476 23.406978 106.366024 232.949066 63.223024 170.577240 42.038247 128.711172 93.908667 14.752613 -21.791479 9.526609 9.151230 38.720131 -2.244405 -2.169005 28.563740 91.175253 -52.057072 43.166710 12.242564 15.563320 -19.459672 -46.492616
-968.741593 106.154002 362.891383 64.641108 -38.469633 72.872805 -27.047757 60.815075 13.722285 23.269577 23.082689 14.685733 -40.614023 13.052536 13.342358 23.195608 -14.353670 -63.573891 3.443680 91.892115 131.360616 9.997166 41.864012 -160.145793 35.029387 60.012890 3.847747 17.448633 147.927472 20.329614 -91.777573 75.257565 -228.503692 -49.428628 107.713859 -6.594987 -40.466904 -54.741497 -83.449872 -7.059954 21.986148 106.497355 234.134923 61.325762 170.875446 41.182868 129.287954 94.236598 14.729930 -21.241289 9.350464 10.720002 39.473210 -4.591588 -3.798311 27.343508 97.350420 -50.380848 42.832318 12.686219 14.995723 -19.099470 -45.076865
-968.891740 105.920065 362.819056 65.645829 -38.672497 73.743497 -27.837606 61.120009 15.241359 24.332402 23.327512 12.732204 -40.075117 13.458757 13.807109 23.334344 -14.681329 -63.744004 4.540869 91.913862 129.122623 8.116529 40.384504 -158.932847 39.431430 59.003532 0.714042 17.006392 146.818249 18.758975 -94.597738 73.556042 -225.173251 -48.094839 107.768405 -7.983695 -40.091421 -54.509626 -81.971382 -6.137273 20.084945 105.361877 235.320180 59.236919 171.923648 40.561772 128.848308 94.364043 14.437183 -20.922287 10.530055 11.226808 40.289975 -7.137779 -4.798557 26.115884 99.074551 -49.057735 41.743613 11.995897 14.683034 -19.015749 -44.619614
-968.930344 105.672072 362.982668 66.665535 -38.573394 74.457299 -28.645682 61.636467 16.248846 24.943543 23.325156 10.816275 -39.489521 13.507654 13.924538 23.437062 -15.307200 -64.144840 5.289465 91.308243 126.883113 6.731074 38.859958 -157.017088 42.433319 58.490086 -2.097758 16.136016 144.642342 16.788586 -97.854338 71.362978 -221.040358 -46.168158 108.041339 -9.972440 -39.254887 -54.559916 -80.250604 -4.490683 18.535940 103.362093 236.421753 56.256146 173.238063 40.170006 128.077044 94.430965 13.960753 -20.848075 13.139870 11.925988 40.106710 -9.943735 -5.908628 26.214734 97.756454 -47.794484 41.664594 11.678771 14.537221 -18.367152 -44.299429
-968.852067 105.337065 363.399195 67.020138 -37.341273 75.598774 -28.569486 62.139791 16.532869 25.795113 22.589365 8.912952 -38.979760 13.653889 13.975065 23.546010 -15.948586 -64.477211 5.535366 89.322591 124.454871 5.455450 36.618096 -154.847642 44.099478 58.345327 -4.617705 14.473806 140.789036 14.147343 -101.574550 68.750000 -216.296477 -43.551779 108.392862 -12.663093 -39.020632 -53.715005 -78.349073 -1.874002 17.440292 100.274417 237.214519 52.783251 174.713411 40.510579 126.872635 95.088951 13.252621 -21.068205 17.443992 12.258064 40.325700 -12.426926 -6.770909 25.193547 95.532340 -47.023960 41.495718 10.671435 14.492355 -18.132849 -44.664157
-968.667436 104.937600 364.082140 67.467714 -34.360277 77.826754 -27.938067 62.892498 16.611679 26.695692 21.864533 7.078741 -38.576273 13.133462 13.752046 23.505562 -16.853488 -64.689521 5.709735 86.322840 121.275391 4.616375 32.807195 -153.136352 45.116323 59.074634 -6.990431 11.287023 135.603857 10.359802 -106.205787 65.519102 -210.991988 -40.551581 108.467591 -16.356006 -38.498751 -53.034305 -76.024288 2.372768 16.694596 95.125076 237.044775 50.735796 176.724834 45.339281 124.058625 100.482990 12.595735 -21.744435 25.111131 11.853780 41.841524 -14.382345 -6.427317 21.666572 92.197390 -47.098724 41.214215 8.691832 14.557177 -17.877392 -45.198541
-968.271088 104.514054 364.955439 66.444804 -32.356396 78.784921 -27.047773 62.604332 16.142182 28.498259 20.910735 5.175595 -38.152019 12.992817 13.415594 23.583759 -17.572163 -64.927471 6.365660 83.957566 118.743850 1.905018 29.067970 -150.887840 45.463436 59.474214 -7.922955 8.197812 127.019430 8.443534 -108.327640 60.605081 -204.144041 -26.335586 106.933093 -28.240464 -38.218610 -51.950613 -72.913301 5.943005 14.047494 89.793628 237.243534 46.840966 179.864439 45.465847 122.547691 100.650808 12.345347 -21.795837 27.703770 11.082065 41.778730 -17.117414 -5.778703 20.581252 88.948686 -47.294566 40.171180 6.909832 14.270792 -18.840588 -45.678990
-967.715897 104.153183 365.866122 66.145908 -30.979474 79.774144 -26.828513 63.297112 16.665209 29.277995 19.989262 4.107333 -37.423757 12.071348 13.457094 23.486876 -18.373856 -64.774966 6.691649 81.389005 115.313387 1.141920 26.006924 -148.921647 44.637759 60.970025 -7.336778 5.194554 119.875830 5.259516 -113.001320 54.690875 -197.627234 -17.876931 105.650411 -35.792855 -37.607496 -51.130192 -70.215267 10.495045 11.783820 86.093428 236.757716 43.629288 182.338320 46.305879 122.326052 101.715881 12.896153 -21.555917 27.438193 11.158818 41.383597 -18.202386 -5.940577 20.177062 85.261545 -48.161587 38.842746 5.470433 13.474242 -20.091492 -45.086885
-967.004380 103.726138 366.770930 64.959300 -30.748146 79.414767 -26.259832 62.900653 17.401751 30.085228 19.238170 3.249703 -36.727218 11.190730 13.587312 23.244660 -19.367556 -64.451420 7.432421 78.953968 111.403520 0.941110 23.023451 -147.333314 42.747511 62.911288 -5.409105 3.747593 111.912841 1.397250 -117.327050 48.970786 -191.986345 -12.179904 104.905203 -39.610347 -37.058325 -50.626769 -66.788212 15.042430 10.208381 83.753924 235.995767 39.622057 184.129087 47.010488 123.263058 102.699735 12.929197 -21.283903 25.127576 11.456882 40.565450 -18.280310 -5.690529 21.303198 81.810613 -49.088682 39.353648 5.371493 12.390371 -19.895819 -43.121733
-966.243577 103.430346 367.707209 64.440403 -30.435162 79.916417 -25.521789 62.899998 18.660700 30.858832 18.853352 2.675170 -36.088268 10.823535 14.103811 22.906047 -20.395834 -63.841368 8.889192 76.813571 108.237536 0.811258 21.266255 -145.064052 40.622232 64.247000 -3.527323 2.292700 104.325020 -2.361953 -121.121124 43.536135 -185.993250 -9.570467 104.874604 -42.416185 -35.828987 -50.963436 -64.867324 19.039245 7.667692 80.577183 235.686660 34.802809 187.379410 46.455125 123.310405 102.331602 12.625346 -21.028291 21.731891 11.555439 39.807770 -18.352080 -5.152797 22.521258 78.819707 -49.926128 38.796697 5.102727 11.202515 -20.536069 -41.412294
-965.424867 103.198956 368.681406 64.306996 -30.081635 81.736409 -24.207502 62.827550 21.876795 32.074657 19.447657 3.801532 -35.526573 8.848368 15.735627 21.507946 -22.654862 -62.075464 11.242269 75.191784 104.643313 0.006142 17.667249 -143.322613 38.160625 64.912123 -1.670240 0.806462 96.087101 -6.408219 -124.375272 38.899748 -180.441754 -8.055820 105.527597 -43.823655 -33.993951 -51.728339 -66.373511 23.958716 4.173593 77.619991 234.119132 31.019605 190.088099 47.915580 121.518040 103.952931 12.863780 -21.366520 24.281413 11.907830 38.480405 -18.654975 -4.558921 24.881599 76.377463 -50.411762 37.940249 5.115915 10.011549 -21.550275 -39.805605
-964.626756 102.914446 369.573664 63.130605 -29.262723 82.099659 -23.587500 62.824141 22.455058 32.902616 17.513954 3.013085 -35.193533 8.645552 16.128233 20.972536 -24.249256 -61.493819 12.220177 75.974182 101.704686 -1.104486 15.623796 -141.176335 35.721985 64.385721 0.013696 -0.740201 86.039456 -11.693588 -125.640852 35.523568 -175.777883 -8.128982 107.696572 -45.198391 -33.053358 -52.051854 -66.431383 27.578436 1.489087 75.759830 232.017455 25.057430 192.547773 46.654775 121.761646 102.703519 12.927280 -21.510328 23.809348 12.130582 37.008106 -18.090400 -4.954370 25.604612 73.756378 -50.714196 36.309678 4.449529 9.123085 -22.955007 -38.892600
-963.863435 102.663210 370.359072 60.892147 -28.727366 80.947953 -22.520937 61.241778 23.358473 33.371949 16.382173 1.694441 -34.890655 8.156071 15.843694 20.544089 -26.057474 -61.421350 13.764390 76.236434 99.044109 -0.415613 14.255107 -138.747698 32.982058 63.504100 1.675099 -1.324595 75.109685 -15.218076 -127.894609 28.937135 -172.778378 -8.158741 111.725181 -44.802127 -32.479749 -52.450952 -65.382915 31.492175 -1.787650 72.958237 229.652188 19.997998 196.094608 47.544575 122.251562 104.404291 14.134376 -21.325970 17.312648 12.554247 35.105591 -17.429695 -5.977913 25.896565 70.988205 -50.822440 34.986773 3.535227 8.439249 -24.546588 -38.419958
-963.219132 102.528485 371.026224 57.368774 -28.173875 79.852548 -20.867421 58.526416 24.120231 34.753591 14.573508 0.503231 -34.455972 7.782824 15.846087 20.178776 -27.668393 -61.309376 14.209305 77.821154 96.939208 0.310818 13.029054 -135.919398 29.596371 62.488042 3.449602 -2.618508 62.849830 -18.613758 -130.792044 22.295431 -171.108560 -11.235004 116.555512 -46.569555 -31.265447 -53.612545 -64.900867 36.571606 -5.451481 70.672398 228.030073 14.940050 198.465476 48.169749 121.062480 105.951213 15.218483 -21.304157 10.452011 12.161935 31.934778 -16.598377 -5.457159 26.013064 68.952843 -50.721097 32.389423 2.654049 7.754516 -26.369887 -37.931329
